<mxfile host="app.diagrams.net" agent="Mozilla/5.0 (Macintosh; Intel Mac OS X 10_15_7) AppleWebKit/537.36 (KHTML, like Gecko) Chrome/138.0.0.0 Safari/537.36" version="28.2.8">
  <diagram name="Page-1" id="yMzBfvs_bjOW8xMQorPg">
    <mxGraphModel dx="1220" dy="786" grid="1" gridSize="10" guides="1" tooltips="1" connect="1" arrows="1" fold="1" page="1" pageScale="1" pageWidth="827" pageHeight="1169" math="0" shadow="0">
      <root>
        <mxCell id="0" />
        <mxCell id="1" parent="0" />
        <mxCell id="LYdptkcRTfElj6LjSpJ_-1" value="" style="group" vertex="1" connectable="0" parent="1">
          <mxGeometry x="570" y="230" width="80" height="80" as="geometry" />
        </mxCell>
        <mxCell id="LYdptkcRTfElj6LjSpJ_-2" value="Chunk-1" style="rounded=0;whiteSpace=wrap;html=1;" vertex="1" parent="LYdptkcRTfElj6LjSpJ_-1">
          <mxGeometry width="80" height="20" as="geometry" />
        </mxCell>
        <mxCell id="LYdptkcRTfElj6LjSpJ_-3" value="Chunk-2" style="rounded=0;whiteSpace=wrap;html=1;" vertex="1" parent="LYdptkcRTfElj6LjSpJ_-1">
          <mxGeometry y="20" width="80" height="20" as="geometry" />
        </mxCell>
        <mxCell id="LYdptkcRTfElj6LjSpJ_-4" value="........" style="rounded=0;whiteSpace=wrap;html=1;" vertex="1" parent="LYdptkcRTfElj6LjSpJ_-1">
          <mxGeometry y="40" width="80" height="20" as="geometry" />
        </mxCell>
        <mxCell id="LYdptkcRTfElj6LjSpJ_-5" value="Chunk-N" style="rounded=0;whiteSpace=wrap;html=1;" vertex="1" parent="LYdptkcRTfElj6LjSpJ_-1">
          <mxGeometry y="60" width="80" height="20" as="geometry" />
        </mxCell>
        <mxCell id="LYdptkcRTfElj6LjSpJ_-6" style="edgeStyle=orthogonalEdgeStyle;rounded=0;orthogonalLoop=1;jettySize=auto;html=1;" edge="1" parent="1" source="LYdptkcRTfElj6LjSpJ_-7">
          <mxGeometry relative="1" as="geometry">
            <mxPoint x="570" y="269" as="targetPoint" />
          </mxGeometry>
        </mxCell>
        <mxCell id="LYdptkcRTfElj6LjSpJ_-7" value="" style="sketch=0;outlineConnect=0;fontColor=#232F3E;gradientColor=none;fillColor=#000000;strokeColor=none;verticalLabelPosition=bottom;verticalAlign=top;align=center;html=1;fontSize=12;fontStyle=0;aspect=fixed;pointerEvents=1;shape=mxgraph.aws4.documents3;strokeWidth=1;" vertex="1" parent="1">
          <mxGeometry x="410" y="230" width="57" height="78" as="geometry" />
        </mxCell>
        <mxCell id="LYdptkcRTfElj6LjSpJ_-8" style="edgeStyle=orthogonalEdgeStyle;rounded=0;orthogonalLoop=1;jettySize=auto;html=1;entryX=0;entryY=0;entryDx=0;entryDy=0;" edge="1" parent="1" source="LYdptkcRTfElj6LjSpJ_-9" target="LYdptkcRTfElj6LjSpJ_-14">
          <mxGeometry relative="1" as="geometry">
            <Array as="points">
              <mxPoint x="695" y="390" />
              <mxPoint x="695" y="390" />
            </Array>
          </mxGeometry>
        </mxCell>
        <mxCell id="LYdptkcRTfElj6LjSpJ_-9" value="Retriever" style="rounded=1;whiteSpace=wrap;html=1;fillColor=#dae8fc;strokeColor=#6c8ebf;" vertex="1" parent="1">
          <mxGeometry x="565" y="365" width="90" height="50" as="geometry" />
        </mxCell>
        <mxCell id="LYdptkcRTfElj6LjSpJ_-10" value="" style="group" vertex="1" connectable="0" parent="1">
          <mxGeometry x="699" y="350" width="80" height="80" as="geometry" />
        </mxCell>
        <mxCell id="LYdptkcRTfElj6LjSpJ_-11" value="Chunk-1" style="rounded=0;whiteSpace=wrap;html=1;" vertex="1" parent="LYdptkcRTfElj6LjSpJ_-10">
          <mxGeometry width="80" height="20" as="geometry" />
        </mxCell>
        <mxCell id="LYdptkcRTfElj6LjSpJ_-12" style="edgeStyle=orthogonalEdgeStyle;rounded=0;orthogonalLoop=1;jettySize=auto;html=1;exitX=0.5;exitY=0;exitDx=0;exitDy=0;" edge="1" parent="LYdptkcRTfElj6LjSpJ_-10" source="LYdptkcRTfElj6LjSpJ_-13">
          <mxGeometry relative="1" as="geometry">
            <mxPoint x="10" y="30" as="targetPoint" />
          </mxGeometry>
        </mxCell>
        <mxCell id="LYdptkcRTfElj6LjSpJ_-13" value="Chunk-2" style="rounded=0;whiteSpace=wrap;html=1;" vertex="1" parent="LYdptkcRTfElj6LjSpJ_-10">
          <mxGeometry y="20" width="80" height="20" as="geometry" />
        </mxCell>
        <mxCell id="LYdptkcRTfElj6LjSpJ_-14" value="........" style="rounded=0;whiteSpace=wrap;html=1;" vertex="1" parent="LYdptkcRTfElj6LjSpJ_-10">
          <mxGeometry y="40" width="80" height="20" as="geometry" />
        </mxCell>
        <mxCell id="LYdptkcRTfElj6LjSpJ_-15" value="Chunk-k" style="rounded=0;whiteSpace=wrap;html=1;" vertex="1" parent="LYdptkcRTfElj6LjSpJ_-10">
          <mxGeometry y="60" width="80" height="20" as="geometry" />
        </mxCell>
        <mxCell id="LYdptkcRTfElj6LjSpJ_-16" value="chunking" style="text;html=1;whiteSpace=wrap;strokeColor=none;fillColor=none;align=center;verticalAlign=middle;rounded=0;" vertex="1" parent="1">
          <mxGeometry x="480" y="234" width="60" height="30" as="geometry" />
        </mxCell>
        <mxCell id="LYdptkcRTfElj6LjSpJ_-17" value="documents" style="text;html=1;whiteSpace=wrap;strokeColor=none;fillColor=none;align=center;verticalAlign=middle;rounded=0;" vertex="1" parent="1">
          <mxGeometry x="415" y="310" width="60" height="30" as="geometry" />
        </mxCell>
        <mxCell id="LYdptkcRTfElj6LjSpJ_-18" value="Top-k chunks retrieved" style="text;html=1;whiteSpace=wrap;strokeColor=none;fillColor=none;align=center;verticalAlign=middle;rounded=0;" vertex="1" parent="1">
          <mxGeometry x="685" y="310" width="130" height="30" as="geometry" />
        </mxCell>
        <mxCell id="LYdptkcRTfElj6LjSpJ_-19" value="" style="edgeStyle=orthogonalEdgeStyle;rounded=0;orthogonalLoop=1;jettySize=auto;html=1;" edge="1" parent="1" source="LYdptkcRTfElj6LjSpJ_-20" target="LYdptkcRTfElj6LjSpJ_-25">
          <mxGeometry relative="1" as="geometry" />
        </mxCell>
        <mxCell id="LYdptkcRTfElj6LjSpJ_-20" value="Reranker(Optional)" style="rounded=1;whiteSpace=wrap;html=1;fillColor=#dae8fc;strokeColor=#6c8ebf;" vertex="1" parent="1">
          <mxGeometry x="835" y="360" width="120" height="60" as="geometry" />
        </mxCell>
        <mxCell id="LYdptkcRTfElj6LjSpJ_-21" value="" style="edgeStyle=orthogonalEdgeStyle;rounded=0;orthogonalLoop=1;jettySize=auto;html=1;" edge="1" parent="1" source="LYdptkcRTfElj6LjSpJ_-22" target="LYdptkcRTfElj6LjSpJ_-32">
          <mxGeometry relative="1" as="geometry" />
        </mxCell>
        <mxCell id="LYdptkcRTfElj6LjSpJ_-22" value="LLM" style="rounded=1;whiteSpace=wrap;html=1;fillColor=#f8cecc;strokeColor=#b85450;" vertex="1" parent="1">
          <mxGeometry x="1015" y="400" width="90" height="50" as="geometry" />
        </mxCell>
        <mxCell id="LYdptkcRTfElj6LjSpJ_-23" value="" style="group" vertex="1" connectable="0" parent="1">
          <mxGeometry x="820" y="468" width="160" height="90" as="geometry" />
        </mxCell>
        <mxCell id="LYdptkcRTfElj6LjSpJ_-24" value="&lt;div style=&quot;text-align: center;&quot;&gt;&lt;span style=&quot;background-color: transparent; color: light-dark(rgb(0, 0, 0), rgb(255, 255, 255));&quot;&gt;Instruction + context + query&lt;/span&gt;&lt;/div&gt;" style="text;whiteSpace=wrap;html=1;" vertex="1" parent="LYdptkcRTfElj6LjSpJ_-23">
          <mxGeometry y="60" width="160" height="30" as="geometry" />
        </mxCell>
        <mxCell id="LYdptkcRTfElj6LjSpJ_-25" value="Prompt" style="rounded=1;whiteSpace=wrap;html=1;fillColor=#d5e8d4;strokeColor=#82b366;" vertex="1" parent="LYdptkcRTfElj6LjSpJ_-23">
          <mxGeometry x="30" y="5" width="90" height="50" as="geometry" />
        </mxCell>
        <mxCell id="LYdptkcRTfElj6LjSpJ_-26" value="" style="edgeStyle=orthogonalEdgeStyle;rounded=0;orthogonalLoop=1;jettySize=auto;html=1;" edge="1" parent="1" source="LYdptkcRTfElj6LjSpJ_-28" target="LYdptkcRTfElj6LjSpJ_-9">
          <mxGeometry relative="1" as="geometry" />
        </mxCell>
        <mxCell id="LYdptkcRTfElj6LjSpJ_-27" style="edgeStyle=orthogonalEdgeStyle;rounded=0;orthogonalLoop=1;jettySize=auto;html=1;entryX=0;entryY=0.5;entryDx=0;entryDy=0;" edge="1" parent="1" source="LYdptkcRTfElj6LjSpJ_-28" target="LYdptkcRTfElj6LjSpJ_-25">
          <mxGeometry relative="1" as="geometry">
            <Array as="points">
              <mxPoint x="435" y="498" />
            </Array>
          </mxGeometry>
        </mxCell>
        <mxCell id="LYdptkcRTfElj6LjSpJ_-28" value="query" style="rounded=1;whiteSpace=wrap;html=1;fillColor=#f5f5f5;strokeColor=#666666;fontColor=#333333;" vertex="1" parent="1">
          <mxGeometry x="390" y="365" width="90" height="50" as="geometry" />
        </mxCell>
        <mxCell id="LYdptkcRTfElj6LjSpJ_-29" style="edgeStyle=orthogonalEdgeStyle;rounded=0;orthogonalLoop=1;jettySize=auto;html=1;entryX=0;entryY=0.5;entryDx=0;entryDy=0;exitX=1;exitY=0;exitDx=0;exitDy=0;" edge="1" parent="1" source="LYdptkcRTfElj6LjSpJ_-14" target="LYdptkcRTfElj6LjSpJ_-20">
          <mxGeometry relative="1" as="geometry">
            <Array as="points">
              <mxPoint x="795" y="390" />
              <mxPoint x="795" y="390" />
            </Array>
          </mxGeometry>
        </mxCell>
        <mxCell id="LYdptkcRTfElj6LjSpJ_-30" value="" style="edgeStyle=orthogonalEdgeStyle;rounded=0;orthogonalLoop=1;jettySize=auto;html=1;" edge="1" parent="1" source="LYdptkcRTfElj6LjSpJ_-5" target="LYdptkcRTfElj6LjSpJ_-9">
          <mxGeometry relative="1" as="geometry" />
        </mxCell>
        <mxCell id="LYdptkcRTfElj6LjSpJ_-31" style="edgeStyle=orthogonalEdgeStyle;rounded=0;orthogonalLoop=1;jettySize=auto;html=1;entryX=0;entryY=0.5;entryDx=0;entryDy=0;" edge="1" parent="1" source="LYdptkcRTfElj6LjSpJ_-25" target="LYdptkcRTfElj6LjSpJ_-22">
          <mxGeometry relative="1" as="geometry" />
        </mxCell>
        <mxCell id="LYdptkcRTfElj6LjSpJ_-32" value="Response" style="rounded=1;whiteSpace=wrap;html=1;fillColor=#fff2cc;strokeColor=#d6b656;" vertex="1" parent="1">
          <mxGeometry x="1165" y="400" width="90" height="50" as="geometry" />
        </mxCell>
      </root>
    </mxGraphModel>
  </diagram>
</mxfile>
